<?xml version="1.0" encoding="UTF-8" standalone="no"?>
<!DOCTYPE svg PUBLIC "-//W3C//DTD SVG 1.1//EN"
 "http://www.w3.org/Graphics/SVG/1.1/DTD/svg11.dtd">
<!-- Generated by graphviz version 14.1.5 (20260411.2331)
 -->
<!-- Title: AMM_data Pages: 1 -->
<svg width="341pt" height="228pt"
 viewBox="0.00 0.00 341.00 228.00" xmlns="http://www.w3.org/2000/svg" xmlns:xlink="http://www.w3.org/1999/xlink">
<g id="graph0" class="graph" transform="scale(1 1) rotate(0) translate(4 224.01)">
<title>AMM_data</title>
<polygon fill="white" stroke="none" points="-4,4 -4,-224.01 336.75,-224.01 336.75,4 -4,4"/>
<!-- map_pools -->
<g id="node1" class="node">
<title>map_pools</title>
<polygon fill="#9c27b0" stroke="black" points="96.12,-42.51 42.12,-42.51 42.12,-1.51 96.12,-1.51 96.12,-42.51"/>
<text xml:space="preserve" text-anchor="middle" x="69.12" y="-25.21" font-family="Times New Roman,serif" font-size="14.00" fill="white">MAP</text>
<text xml:space="preserve" text-anchor="middle" x="69.12" y="-8.71" font-family="Times New Roman,serif" font-size="14.00" fill="white">pools</text>
</g>
<!-- fn_create&#45;pool -->
<g id="node5" class="node">
<title>fn_create&#45;pool</title>
<polygon fill="#4caf50" stroke="black" points="305.75,-39.01 229,-39.01 229,-3.01 305.75,-3.01 305.75,-39.01"/>
<text xml:space="preserve" text-anchor="middle" x="267.38" y="-15.96" font-family="Times New Roman,serif" font-size="14.00" fill="white">create&#45;pool</text>
</g>
<!-- map_pools&#45;&gt;fn_create&#45;pool -->
<g id="edge1" class="edge">
<title>map_pools&#45;&gt;fn_create&#45;pool</title>
<path fill="none" stroke="#9c27b0" stroke-dasharray="5,2" d="M96.36,-22.1C119.44,-22.16 153.95,-22.19 184,-22.01 194.83,-21.94 206.45,-21.83 217.46,-21.7"/>
<polygon fill="#9c27b0" stroke="#9c27b0" points="217.18,-25.2 227.13,-21.58 217.09,-18.2 217.18,-25.2"/>
<text xml:space="preserve" text-anchor="middle" x="170.12" y="-25.31" font-family="Times New Roman,serif" font-size="14.00">read</text>
</g>
<!-- map_positions -->
<g id="node2" class="node">
<title>map_positions</title>
<polygon fill="#9c27b0" stroke="black" points="101.5,-111.51 36.75,-111.51 36.75,-70.51 101.5,-70.51 101.5,-111.51"/>
<text xml:space="preserve" text-anchor="middle" x="69.12" y="-94.21" font-family="Times New Roman,serif" font-size="14.00" fill="white">MAP</text>
<text xml:space="preserve" text-anchor="middle" x="69.12" y="-77.71" font-family="Times New Roman,serif" font-size="14.00" fill="white">positions</text>
</g>
<!-- fn_get&#45;position&#45;liquidity -->
<g id="node6" class="node">
<title>fn_get&#45;position&#45;liquidity</title>
<polygon fill="#2196f3" stroke="black" points="332.75,-109.01 202,-109.01 202,-73.01 332.75,-73.01 332.75,-109.01"/>
<text xml:space="preserve" text-anchor="middle" x="267.38" y="-85.96" font-family="Times New Roman,serif" font-size="14.00" fill="white">get&#45;position&#45;liquidity</text>
</g>
<!-- map_positions&#45;&gt;fn_get&#45;position&#45;liquidity -->
<g id="edge3" class="edge">
<title>map_positions&#45;&gt;fn_get&#45;position&#45;liquidity</title>
<path fill="none" stroke="#9c27b0" stroke-dasharray="5,2" d="M101.66,-91.01C125.59,-91.01 159.53,-91.01 190.38,-91.01"/>
<polygon fill="#9c27b0" stroke="#9c27b0" points="190.08,-94.51 200.07,-91.01 190.07,-87.51 190.08,-94.51"/>
<text xml:space="preserve" text-anchor="middle" x="170.12" y="-94.21" font-family="Times New Roman,serif" font-size="14.00">read</text>
</g>
<!-- fn_get&#45;pool&#45;id -->
<g id="node3" class="node">
<title>fn_get&#45;pool&#45;id</title>
<polygon fill="#2196f3" stroke="black" points="107.12,-166.01 31.12,-166.01 31.12,-130.01 107.12,-130.01 107.12,-166.01"/>
<text xml:space="preserve" text-anchor="middle" x="69.12" y="-142.96" font-family="Times New Roman,serif" font-size="14.00" fill="white">get&#45;pool&#45;id</text>
</g>
<!-- fn_correct&#45;token&#45;ordering -->
<g id="node4" class="node">
<title>fn_correct&#45;token&#45;ordering</title>
<polygon fill="#ff9800" stroke="black" points="138.25,-220.01 0,-220.01 0,-184.01 138.25,-184.01 138.25,-220.01"/>
<text xml:space="preserve" text-anchor="middle" x="69.12" y="-196.96" font-family="Times New Roman,serif" font-size="14.00" fill="white">correct&#45;token&#45;ordering</text>
</g>
<!-- fn_create&#45;pool&#45;&gt;map_pools -->
<g id="edge2" class="edge">
<title>fn_create&#45;pool&#45;&gt;map_pools</title>
<path fill="none" stroke="#9c27b0" d="M228.56,-10.11C214.68,-6.63 198.74,-3.23 184,-1.51 158.17,1.51 129.35,-3.77 107.17,-9.72"/>
<polygon fill="#9c27b0" stroke="#9c27b0" points="106.33,-6.32 97.68,-12.44 108.25,-13.05 106.33,-6.32"/>
<text xml:space="preserve" text-anchor="middle" x="170.12" y="-4.71" font-family="Times New Roman,serif" font-size="14.00">write</text>
</g>
</g>
</svg>
