<?xml version="1.0" encoding="UTF-8" standalone="no"?>
<!DOCTYPE svg PUBLIC "-//W3C//DTD SVG 1.1//EN"
 "http://www.w3.org/Graphics/SVG/1.1/DTD/svg11.dtd">
<!-- Generated by graphviz version 14.1.5 (20260411.2331)
 -->
<!-- Title: AMM_calls Pages: 1 -->
<svg width="295pt" height="116pt"
 viewBox="0.00 0.00 295.00 116.00" xmlns="http://www.w3.org/2000/svg" xmlns:xlink="http://www.w3.org/1999/xlink">
<g id="graph0" class="graph" transform="scale(1 1) rotate(0) translate(4 112)">
<title>AMM_calls</title>
<polygon fill="white" stroke="none" points="-4,4 -4,-112 291.38,-112 291.38,4 -4,4"/>
<!-- fn_get&#45;pool&#45;id -->
<g id="node1" class="node">
<title>fn_get&#45;pool&#45;id</title>
<polygon fill="#2196f3" stroke="black" points="76,-36 0,-36 0,0 76,0 76,-36"/>
<text xml:space="preserve" text-anchor="middle" x="38" y="-12.95" font-family="Times New Roman,serif" font-size="14.00" fill="white">get&#45;pool&#45;id</text>
</g>
<!-- fn_correct&#45;token&#45;ordering -->
<g id="node2" class="node">
<title>fn_correct&#45;token&#45;ordering</title>
<polygon fill="#ff9800" stroke="black" points="232.12,-36 93.88,-36 93.88,0 232.12,0 232.12,-36"/>
<text xml:space="preserve" text-anchor="middle" x="163" y="-12.95" font-family="Times New Roman,serif" font-size="14.00" fill="white">correct&#45;token&#45;ordering</text>
</g>
<!-- fn_create&#45;pool -->
<g id="node3" class="node">
<title>fn_create&#45;pool</title>
<polygon fill="#4caf50" stroke="black" points="138.38,-108 61.62,-108 61.62,-72 138.38,-72 138.38,-108"/>
<text xml:space="preserve" text-anchor="middle" x="100" y="-84.95" font-family="Times New Roman,serif" font-size="14.00" fill="white">create&#45;pool</text>
</g>
<!-- fn_create&#45;pool&#45;&gt;fn_get&#45;pool&#45;id -->
<g id="edge2" class="edge">
<title>fn_create&#45;pool&#45;&gt;fn_get&#45;pool&#45;id</title>
<path fill="none" stroke="black" d="M84.67,-71.7C77.47,-63.56 68.72,-53.69 60.76,-44.7"/>
<polygon fill="black" stroke="black" points="63.4,-42.4 54.15,-37.24 58.16,-47.04 63.4,-42.4"/>
</g>
<!-- fn_create&#45;pool&#45;&gt;fn_correct&#45;token&#45;ordering -->
<g id="edge1" class="edge">
<title>fn_create&#45;pool&#45;&gt;fn_correct&#45;token&#45;ordering</title>
<path fill="none" stroke="black" d="M115.57,-71.7C122.97,-63.47 131.97,-53.48 140.12,-44.42"/>
<polygon fill="black" stroke="black" points="142.51,-47 146.59,-37.23 137.3,-42.32 142.51,-47"/>
</g>
<!-- fn_get&#45;position&#45;liquidity -->
<g id="node4" class="node">
<title>fn_get&#45;position&#45;liquidity</title>
<polygon fill="#2196f3" stroke="black" points="287.38,-108 156.62,-108 156.62,-72 287.38,-72 287.38,-108"/>
<text xml:space="preserve" text-anchor="middle" x="222" y="-84.95" font-family="Times New Roman,serif" font-size="14.00" fill="white">get&#45;position&#45;liquidity</text>
</g>
</g>
</svg>
