<?xml version="1.0" encoding="UTF-8" standalone="no"?>
<!DOCTYPE svg PUBLIC "-//W3C//DTD SVG 1.1//EN"
 "http://www.w3.org/Graphics/SVG/1.1/DTD/svg11.dtd">
<!-- Generated by graphviz version 14.1.5 (20260411.2331)
 -->
<!-- Title: AMM Pages: 1 -->
<svg width="702pt" height="694pt"
 viewBox="0.00 0.00 702.00 694.00" xmlns="http://www.w3.org/2000/svg" xmlns:xlink="http://www.w3.org/1999/xlink">
<g id="graph0" class="graph" transform="scale(1 1) rotate(0) translate(4 690)">
<title>AMM</title>
<polygon fill="white" stroke="none" points="-4,4 -4,-690 697.75,-690 697.75,4 -4,4"/>
<g id="clust1" class="cluster">
<title>cluster_traits</title>
<polygon fill="none" stroke="#00bcd4" stroke-dasharray="5,2" points="38.91,-158 38.91,-234 123.84,-234 123.84,-158 38.91,-158"/>
<text xml:space="preserve" text-anchor="middle" x="81.38" y="-216.7" font-family="Helvetica,sans-Serif" font-size="14.00">Traits</text>
</g>
<g id="clust2" class="cluster">
<title>cluster_storage</title>
<polygon fill="#f3e5f5" stroke="#9c27b0" points="226.5,-254 226.5,-384 332.75,-384 332.75,-254 226.5,-254"/>
<text xml:space="preserve" text-anchor="middle" x="279.62" y="-366.7" font-family="Helvetica,sans-Serif" font-size="14.00">Storage</text>
</g>
<g id="clust3" class="cluster">
<title>cluster_constants</title>
<polygon fill="#eceff1" stroke="#607d8b" points="377.75,-8 377.75,-678 685.75,-678 685.75,-8 377.75,-8"/>
<text xml:space="preserve" text-anchor="middle" x="531.75" y="-660.7" font-family="Helvetica,sans-Serif" font-size="14.00">Constants / Errors</text>
</g>
<g id="clust4" class="cluster">
<title>cluster_functions</title>
<polygon fill="#e8f5e9" stroke="#4caf50" points="8,-392 8,-522 356.75,-522 356.75,-392 8,-392"/>
<text xml:space="preserve" text-anchor="middle" x="182.38" y="-504.7" font-family="Helvetica,sans-Serif" font-size="14.00">Functions</text>
</g>
<!-- trait_ft&#45;trait -->
<g id="node1" class="node">
<title>trait_ft&#45;trait</title>
<ellipse fill="#00bcd4" stroke="black" cx="81.38" cy="-184" rx="34.46" ry="18"/>
<text xml:space="preserve" text-anchor="middle" x="81.38" y="-178.95" font-family="Times New Roman,serif" font-size="14.00" fill="white">ft&#45;trait</text>
</g>
<!-- map_pools -->
<g id="node2" class="node">
<title>map_pools</title>
<polygon fill="#9c27b0" stroke="black" points="315,-352 244.25,-352 244.25,-316 315,-316 315,-352"/>
<text xml:space="preserve" text-anchor="middle" x="279.62" y="-329.32" font-family="Times New Roman,serif" font-size="14.00" fill="white">🗺 pools</text>
</g>
<!-- map_positions -->
<g id="node3" class="node">
<title>map_positions</title>
<polygon fill="#9c27b0" stroke="black" points="324.75,-298 234.5,-298 234.5,-262 324.75,-262 324.75,-298"/>
<text xml:space="preserve" text-anchor="middle" x="279.62" y="-275.32" font-family="Times New Roman,serif" font-size="14.00" fill="white">🗺 positions</text>
</g>
<!-- const_MINIMUM_LIQUIDITY -->
<g id="node4" class="node">
<title>const_MINIMUM_LIQUIDITY</title>
<polygon fill="#607d8b" stroke="black" points="611,-52 452.5,-52 452.5,-16 611,-16 611,-52"/>
<text xml:space="preserve" text-anchor="middle" x="531.75" y="-28.95" font-family="Times New Roman,serif" font-size="14.00" fill="white">MINIMUM_LIQUIDITY</text>
</g>
<!-- const_THIS_CONTRACT -->
<g id="node5" class="node">
<title>const_THIS_CONTRACT</title>
<polygon fill="#607d8b" stroke="black" points="594.5,-106 469,-106 469,-70 594.5,-70 594.5,-106"/>
<text xml:space="preserve" text-anchor="middle" x="531.75" y="-82.95" font-family="Times New Roman,serif" font-size="14.00" fill="white">THIS_CONTRACT</text>
</g>
<!-- const_FEES_DENOM -->
<g id="node6" class="node">
<title>const_FEES_DENOM</title>
<polygon fill="#607d8b" stroke="black" points="584,-160 479.5,-160 479.5,-124 584,-124 584,-160"/>
<text xml:space="preserve" text-anchor="middle" x="531.75" y="-136.95" font-family="Times New Roman,serif" font-size="14.00" fill="white">FEES_DENOM</text>
</g>
<!-- err_ERR_POOL_ALREADY_EXISTS -->
<g id="node7" class="node">
<title>err_ERR_POOL_ALREADY_EXISTS</title>
<polygon fill="#f44336" stroke="black" points="635.75,-214 427.75,-214 427.75,-178 635.75,-178 635.75,-214"/>
<text xml:space="preserve" text-anchor="middle" x="531.75" y="-190.95" font-family="Times New Roman,serif" font-size="14.00" fill="white">ERR_POOL_ALREADY_EXISTS</text>
</g>
<!-- err_ERR_INCORRECT_TOKEN_ORDERING -->
<g id="node8" class="node">
<title>err_ERR_INCORRECT_TOKEN_ORDERING</title>
<polygon fill="#f44336" stroke="black" points="659,-268 404.5,-268 404.5,-232 659,-232 659,-268"/>
<text xml:space="preserve" text-anchor="middle" x="531.75" y="-244.95" font-family="Times New Roman,serif" font-size="14.00" fill="white">ERR_INCORRECT_TOKEN_ORDERING</text>
</g>
<!-- err_ERR_INSUFFICIENT_LIQUIDITY_MINTED -->
<g id="node9" class="node">
<title>err_ERR_INSUFFICIENT_LIQUIDITY_MINTED</title>
<polygon fill="#f44336" stroke="black" points="669.5,-322 394,-322 394,-286 669.5,-286 669.5,-322"/>
<text xml:space="preserve" text-anchor="middle" x="531.75" y="-298.95" font-family="Times New Roman,serif" font-size="14.00" fill="white">ERR_INSUFFICIENT_LIQUIDITY_MINTED</text>
</g>
<!-- err_ERR_INSUFFICIENT_LIQUIDITY_OWNED -->
<g id="node10" class="node">
<title>err_ERR_INSUFFICIENT_LIQUIDITY_OWNED</title>
<polygon fill="#f44336" stroke="black" points="668.38,-376 395.12,-376 395.12,-340 668.38,-340 668.38,-376"/>
<text xml:space="preserve" text-anchor="middle" x="531.75" y="-352.95" font-family="Times New Roman,serif" font-size="14.00" fill="white">ERR_INSUFFICIENT_LIQUIDITY_OWNED</text>
</g>
<!-- err_ERR_INSUFFICIENT_LIQUIDITY_BURNED -->
<g id="node11" class="node">
<title>err_ERR_INSUFFICIENT_LIQUIDITY_BURNED</title>
<polygon fill="#f44336" stroke="black" points="670.62,-430 392.88,-430 392.88,-394 670.62,-394 670.62,-430"/>
<text xml:space="preserve" text-anchor="middle" x="531.75" y="-406.95" font-family="Times New Roman,serif" font-size="14.00" fill="white">ERR_INSUFFICIENT_LIQUIDITY_BURNED</text>
</g>
<!-- err_ERR_INSUFFICIENT_INPUT_AMOUNT -->
<g id="node12" class="node">
<title>err_ERR_INSUFFICIENT_INPUT_AMOUNT</title>
<polygon fill="#f44336" stroke="black" points="658.25,-484 405.25,-484 405.25,-448 658.25,-448 658.25,-484"/>
<text xml:space="preserve" text-anchor="middle" x="531.75" y="-460.95" font-family="Times New Roman,serif" font-size="14.00" fill="white">ERR_INSUFFICIENT_INPUT_AMOUNT</text>
</g>
<!-- err_ERR_INSUFFICIENT_LIQUIDITY_FOR_SWAP -->
<g id="node13" class="node">
<title>err_ERR_INSUFFICIENT_LIQUIDITY_FOR_SWAP</title>
<polygon fill="#f44336" stroke="black" points="677.75,-538 385.75,-538 385.75,-502 677.75,-502 677.75,-538"/>
<text xml:space="preserve" text-anchor="middle" x="531.75" y="-514.95" font-family="Times New Roman,serif" font-size="14.00" fill="white">ERR_INSUFFICIENT_LIQUIDITY_FOR_SWAP</text>
</g>
<!-- err_ERR_INSUFFICIENT_1_AMOUNT -->
<g id="node14" class="node">
<title>err_ERR_INSUFFICIENT_1_AMOUNT</title>
<polygon fill="#f44336" stroke="black" points="641.75,-592 421.75,-592 421.75,-556 641.75,-556 641.75,-592"/>
<text xml:space="preserve" text-anchor="middle" x="531.75" y="-568.95" font-family="Times New Roman,serif" font-size="14.00" fill="white">ERR_INSUFFICIENT_1_AMOUNT</text>
</g>
<!-- err_ERR_INSUFFICIENT_0_AMOUNT -->
<g id="node15" class="node">
<title>err_ERR_INSUFFICIENT_0_AMOUNT</title>
<polygon fill="#f44336" stroke="black" points="641.75,-646 421.75,-646 421.75,-610 641.75,-610 641.75,-646"/>
<text xml:space="preserve" text-anchor="middle" x="531.75" y="-622.95" font-family="Times New Roman,serif" font-size="14.00" fill="white">ERR_INSUFFICIENT_0_AMOUNT</text>
</g>
<!-- fn_get&#45;pool&#45;id -->
<g id="node16" class="node">
<title>fn_get&#45;pool&#45;id</title>
<polygon fill="#2196f3" stroke="black" points="317.62,-490 241.62,-490 241.62,-454 317.62,-454 317.62,-490"/>
<text xml:space="preserve" text-anchor="middle" x="279.62" y="-466.95" font-family="Times New Roman,serif" font-size="14.00" fill="white">get&#45;pool&#45;id</text>
</g>
<!-- fn_correct&#45;token&#45;ordering -->
<g id="node17" class="node">
<title>fn_correct&#45;token&#45;ordering</title>
<polygon fill="#ff9800" stroke="black" points="348.75,-436 210.5,-436 210.5,-400 348.75,-400 348.75,-436"/>
<text xml:space="preserve" text-anchor="middle" x="279.62" y="-412.95" font-family="Times New Roman,serif" font-size="14.00" fill="white">correct&#45;token&#45;ordering</text>
</g>
<!-- fn_correct&#45;token&#45;ordering&#45;&gt;err_ERR_INCORRECT_TOKEN_ORDERING -->
<g id="edge6" class="edge">
<title>fn_correct&#45;token&#45;ordering&#45;&gt;err_ERR_INCORRECT_TOKEN_ORDERING</title>
<path fill="none" stroke="#f44336" stroke-dasharray="1,5" d="M343.66,-399.56C348.56,-396.31 353.04,-392.49 356.75,-388 388.76,-349.31 342.03,-312.28 377.75,-277 383.75,-271.08 390.56,-266.2 397.9,-262.19"/>
<polygon fill="#f44336" stroke="#f44336" points="398.41,-264.29 402.83,-259.72 396.53,-260.53 398.41,-264.29"/>
</g>
<!-- fn_create&#45;pool -->
<g id="node18" class="node">
<title>fn_create&#45;pool</title>
<polygon fill="#4caf50" stroke="black" points="119.75,-490 43,-490 43,-454 119.75,-454 119.75,-490"/>
<text xml:space="preserve" text-anchor="middle" x="81.38" y="-466.95" font-family="Times New Roman,serif" font-size="14.00" fill="white">create&#45;pool</text>
</g>
<!-- fn_create&#45;pool&#45;&gt;map_pools -->
<g id="edge1" class="edge">
<title>fn_create&#45;pool&#45;&gt;map_pools</title>
<path fill="none" stroke="#9c27b0" stroke-dasharray="5,2" d="M119.93,-460.09C129.22,-456.14 138.79,-451.14 146.75,-445 157.17,-436.96 155.45,-430.81 164.75,-421.5 188.28,-397.93 218.27,-375.13 241.56,-358.72"/>
<polygon fill="#9c27b0" stroke="#9c27b0" points="243.32,-361.76 249.53,-353.18 239.32,-356.01 243.32,-361.76"/>
<text xml:space="preserve" text-anchor="middle" x="178.62" y="-424.7" font-family="Times New Roman,serif" font-size="14.00">read</text>
</g>
<!-- fn_create&#45;pool&#45;&gt;map_pools -->
<g id="edge2" class="edge">
<title>fn_create&#45;pool&#45;&gt;map_pools</title>
<path fill="none" stroke="#9c27b0" d="M120.1,-462.76C129.94,-458.74 139.74,-453.04 146.75,-445 167.16,-421.6 143.97,-400.57 164.75,-377.5 182.22,-358.11 209.28,-347.31 232.64,-341.32"/>
<polygon fill="#9c27b0" stroke="#9c27b0" points="233.33,-344.75 242.28,-339.09 231.75,-337.93 233.33,-344.75"/>
<text xml:space="preserve" text-anchor="middle" x="178.62" y="-380.7" font-family="Times New Roman,serif" font-size="14.00">write</text>
</g>
<!-- fn_create&#45;pool&#45;&gt;err_ERR_POOL_ALREADY_EXISTS -->
<g id="edge8" class="edge">
<title>fn_create&#45;pool&#45;&gt;err_ERR_POOL_ALREADY_EXISTS</title>
<path fill="none" stroke="#f44336" stroke-dasharray="1,5" d="M119.98,-463.88C130.18,-459.86 140.21,-453.88 146.75,-445 196.26,-377.77 119.92,-328.44 164.75,-258 177.43,-238.08 188.1,-238.45 210.5,-231 277.96,-208.57 357.37,-199.79 420.24,-196.62"/>
<polygon fill="#f44336" stroke="#f44336" points="420.03,-198.74 425.93,-196.36 419.83,-194.54 420.03,-198.74"/>
</g>
<!-- fn_create&#45;pool&#45;&gt;err_ERR_INCORRECT_TOKEN_ORDERING -->
<g id="edge7" class="edge">
<title>fn_create&#45;pool&#45;&gt;err_ERR_INCORRECT_TOKEN_ORDERING</title>
<path fill="none" stroke="#f44336" stroke-dasharray="1,5" d="M120.09,-463.57C130.17,-459.55 140.1,-453.65 146.75,-445 182.31,-398.76 143.36,-369.27 164.75,-315 177.7,-282.13 179.14,-266.27 210.5,-250 242.47,-233.41 324.09,-233.61 396.93,-237.86"/>
<polygon fill="#f44336" stroke="#f44336" points="396.78,-239.95 402.89,-238.22 397.03,-235.76 396.78,-239.95"/>
</g>
<!-- fn_create&#45;pool&#45;&gt;fn_get&#45;pool&#45;id -->
<g id="edge5" class="edge">
<title>fn_create&#45;pool&#45;&gt;fn_get&#45;pool&#45;id</title>
<path fill="none" stroke="#555555" d="M120.21,-472C152.35,-472 198.58,-472 232.81,-472"/>
<polygon fill="#555555" stroke="#555555" points="232.72,-474.45 239.72,-472 232.72,-469.55 232.72,-474.45"/>
</g>
<!-- fn_create&#45;pool&#45;&gt;fn_correct&#45;token&#45;ordering -->
<g id="edge4" class="edge">
<title>fn_create&#45;pool&#45;&gt;fn_correct&#45;token&#45;ordering</title>
<path fill="none" stroke="#555555" d="M120.21,-461.59C143.83,-455.09 175.06,-446.5 203.55,-438.66"/>
<polygon fill="#555555" stroke="#555555" points="203.94,-441.09 210.04,-436.87 202.64,-436.37 203.94,-441.09"/>
</g>
<!-- fn_get&#45;position&#45;liquidity -->
<g id="node19" class="node">
<title>fn_get&#45;position&#45;liquidity</title>
<polygon fill="#2196f3" stroke="black" points="146.75,-436 16,-436 16,-400 146.75,-400 146.75,-436"/>
<text xml:space="preserve" text-anchor="middle" x="81.38" y="-412.95" font-family="Times New Roman,serif" font-size="14.00" fill="white">get&#45;position&#45;liquidity</text>
</g>
<!-- fn_get&#45;position&#45;liquidity&#45;&gt;map_positions -->
<g id="edge3" class="edge">
<title>fn_get&#45;position&#45;liquidity&#45;&gt;map_positions</title>
<path fill="none" stroke="#9c27b0" stroke-dasharray="5,2" d="M98.27,-399.72C120.77,-374.99 164.36,-331.18 210.5,-307 214.68,-304.81 219.09,-302.68 223.56,-300.65"/>
<polygon fill="#9c27b0" stroke="#9c27b0" points="224.87,-303.9 232.65,-296.7 222.09,-297.48 224.87,-303.9"/>
<text xml:space="preserve" text-anchor="middle" x="178.62" y="-338" font-family="Times New Roman,serif" font-size="14.00">read</text>
</g>
</g>
</svg>
